<svg xmlns="http://www.w3.org/2000/svg" width="256" height="256" viewBox="0 0 256 256">
  <defs>
    <linearGradient id="g" x1="0" x2="1" y1="0" y2="1">
      <stop offset="0" stop-color="#0A2E6B"/>
      <stop offset="1" stop-color="#071c47"/>
    </linearGradient>
  </defs>
  <rect width="256" height="256" rx="28" fill="url(#g)"/>
  <g fill="#FDB515">
    <path d="M34 160c48-20 92-58 120-100 4-6 15-4 14 4-3 37-27 78-72 116-9 8-6 20 6 18 41-6 77-31 111-66 6-6 15 2 10 9-34 51-89 81-149 81-18 0-24-22-10-33 9-7 18-16 26-25-15 7-33 13-53 16-10 2-16-12-7-18z"/>
    <circle cx="192" cy="72" r="10"/>
  </g>
  <text x="128" y="230" text-anchor="middle" font-family="Inter,Segoe UI,Arial" font-size="24" font-weight="800" fill="#fff">EAGLES</text>
</svg>
